<svg width="1112.9" height="381.43" xmlns="http://www.w3.org/2000/svg">

 <metadata>image/svg+xmlOpenclipartQuotation Marks2011-06-08T16:00:13A pair of big blocky quotation marks.  When they quote something, that thing *knows* it's been quoted.https://openclipart.org/detail/143641/quotation-marks-by-darth_schmoodarth_schmooiconquotation marksquote marksquotesweb design</metadata>
 <g>
  <title>background</title>
  <rect fill="none" id="canvas_background" height="402" width="582" y="-1" x="-1"/>
 </g>
 <g>
  <title>Layer 1</title>
  <g id="layer1">
   <path fill="orange" d="m258.9,-1.000018l232.86,0l0,222.86l-110,0s0,52.857 15.714,81.429c15.714,28.571 34.286,44.286 34.286,44.286l-27.143,32.857s-77.143,-45.714 -108.57,-94.286c-31.429,-48.571 -36.73,-95.184 -36.811,-132.99l-0.3317,-154.15l-0.0043,-0.006z" id="path3642"/>
   <g id="g3658">
    <path fill="orange" d="m846,-1.000018l-232.86,0l0,222.86l110,0s0,52.857 -15.714,81.429c-15.714,28.571 -34.286,44.286 -34.286,44.286l27.143,32.857s77.143,-45.714 108.57,-94.286c31.429,-48.571 36.73,-95.184 36.811,-132.99l0.3317,-154.15l0.0043,-0.006z" id="path3648"/>
   </g>
  </g>
 </g>
</svg>